{
    "asset" : {
        "generator" : "Khronos glTF Blender I/O v1.7.33",
        "version" : "2.0"
    },
    "scene" : 0,
    "scenes" : [
        {
            "name" : "Scene",
            "nodes" : [
                0
            ]
        }
    ],
    "nodes" : [
        {
            "mesh" : 0,
            "name" : "root"
        }
    ],
    "materials" : [
        {
            "doubleSided" : true,
            "name" : "default material",
            "pbrMetallicRoughness" : {
                "baseColorFactor" : [
                    0.6121000051498413,
                    0.6121000051498413,
                    0.6121000051498413,
                    1
                ],
                "metallicFactor" : 0.10000000149011612,
                "roughnessFactor" : 0.5
            }
        }
    ],
    "meshes" : [
        {
            "name" : "Mesh_0",
            "primitives" : [
                {
                    "attributes" : {
                        "POSITION" : 0,
                        "NORMAL" : 1,
                        "TEXCOORD_0" : 2
                    },
                    "indices" : 3,
                    "material" : 0
                }
            ]
        }
    ],
    "accessors" : [
        {
            "bufferView" : 0,
            "componentType" : 5126,
            "count" : 1431,
            "max" : [
                1,
                0.12157142907381058,
                0.037108276039361954
            ],
            "min" : [
                -2.1747757268002557e-15,
                0.0008914285572245717,
                -0.037108276039361954
            ],
            "type" : "VEC3"
        },
        {
            "bufferView" : 1,
            "componentType" : 5126,
            "count" : 1431,
            "type" : "VEC3"
        },
        {
            "bufferView" : 2,
            "componentType" : 5126,
            "count" : 1431,
            "type" : "VEC2"
        },
        {
            "bufferView" : 3,
            "componentType" : 5123,
            "count" : 2424,
            "type" : "SCALAR"
        }
    ],
    "bufferViews" : [
        {
            "buffer" : 0,
            "byteLength" : 17172,
            "byteOffset" : 0
        },
        {
            "buffer" : 0,
            "byteLength" : 17172,
            "byteOffset" : 17172
        },
        {
            "buffer" : 0,
            "byteLength" : 11448,
            "byteOffset" : 34344
        },
        {
            "buffer" : 0,
            "byteLength" : 4848,
            "byteOffset" : 45792
        }
    ],
    "buffers" : [
        {
            "byteLength" : 50640,
            "uri" : "data:application/octet-stream;base64,"
        }
    ]
}
