{
    "asset" : {
        "generator" : "Khronos glTF Blender I/O v1.7.33",
        "version" : "2.0"
    },
    "scene" : 0,
    "scenes" : [
        {
            "name" : "Scene",
            "nodes" : [
                0
            ]
        }
    ],
    "nodes" : [
        {
            "mesh" : 0,
            "name" : "root"
        }
    ],
    "materials" : [
        {
            "doubleSided" : true,
            "name" : "default material",
            "pbrMetallicRoughness" : {
                "baseColorFactor" : [
                    0.6121000051498413,
                    0.6121000051498413,
                    0.6121000051498413,
                    1
                ],
                "metallicFactor" : 0.10000000149011612,
                "roughnessFactor" : 0.5
            }
        }
    ],
    "meshes" : [
        {
            "name" : "Mesh_0",
            "primitives" : [
                {
                    "attributes" : {
                        "POSITION" : 0,
                        "NORMAL" : 1,
                        "TEXCOORD_0" : 2
                    },
                    "indices" : 3,
                    "material" : 0
                }
            ]
        }
    ],
    "accessors" : [
        {
            "bufferView" : 0,
            "componentType" : 5126,
            "count" : 2878,
            "max" : [
                0.040000069886446,
                0.1257142871618271,
                0.03999999910593033
            ],
            "min" : [
                -0.039999932050704956,
                -2.4604045605942705e-17,
                -0.03999999910593033
            ],
            "type" : "VEC3"
        },
        {
            "bufferView" : 1,
            "componentType" : 5126,
            "count" : 2878,
            "type" : "VEC3"
        },
        {
            "bufferView" : 2,
            "componentType" : 5126,
            "count" : 2878,
            "type" : "VEC2"
        },
        {
            "bufferView" : 3,
            "componentType" : 5123,
            "count" : 4188,
            "type" : "SCALAR"
        }
    ],
    "bufferViews" : [
        {
            "buffer" : 0,
            "byteLength" : 34536,
            "byteOffset" : 0
        },
        {
            "buffer" : 0,
            "byteLength" : 34536,
            "byteOffset" : 34536
        },
        {
            "buffer" : 0,
            "byteLength" : 23024,
            "byteOffset" : 69072
        },
        {
            "buffer" : 0,
            "byteLength" : 8376,
            "byteOffset" : 92096
        }
    ],
    "buffers" : [
        {
            "byteLength" : 100472,
            "uri" : "data:application/octet-stream;base64,"
        }
    ]
}
