<?xml version="1.0" encoding="iso-8859-1"?>
<!-- Generator: Adobe Illustrator 16.0.0, SVG Export Plug-In . SVG Version: 6.00 Build 0)  -->
<!DOCTYPE svg PUBLIC "-//W3C//DTD SVG 1.1//EN" "http://www.w3.org/Graphics/SVG/1.1/DTD/svg11.dtd">
<svg version="1.1" id="Capa_1" xmlns="http://www.w3.org/2000/svg" xmlns:xlink="http://www.w3.org/1999/xlink" x="0px" y="0px"
	 width="47px" height="47px" viewBox="0 0 47 47" style="enable-background:new 0 0 47 47;" xml:space="preserve">
<g>
	<g>
		<path d="M13.536,25.957c0.393-0.371,0.867-0.83,1.426-1.378c0.354-0.332,0.646-0.634,0.878-0.901
			c0.229-0.27,0.416-0.541,0.555-0.813c0.14-0.273,0.236-0.566,0.291-0.878c0.054-0.312,0.081-0.682,0.081-1.111
			c0-0.45-0.055-0.87-0.161-1.257c-0.107-0.387-0.296-0.722-0.565-1.006c-0.269-0.285-0.63-0.511-1.087-0.678
			c-0.456-0.166-1.028-0.249-1.715-0.249c-2.449,0-3.674,1.144-3.674,3.432v0.37h2.514c0-0.215,0.005-0.445,0.016-0.693
			c0.011-0.246,0.049-0.475,0.113-0.684c0.063-0.21,0.166-0.382,0.306-0.516c0.14-0.135,0.339-0.201,0.597-0.201
			c0.387,0,0.642,0.137,0.765,0.41c0.123,0.273,0.186,0.637,0.186,1.088c0,0.215-0.011,0.413-0.032,0.596
			c-0.021,0.184-0.097,0.385-0.227,0.604c-0.128,0.221-0.327,0.479-0.595,0.773c-0.269,0.296-0.645,0.657-1.128,1.088
			c-0.248,0.215-0.519,0.479-0.813,0.789c-0.296,0.313-0.576,0.677-0.839,1.096c-0.263,0.418-0.482,0.896-0.659,1.435
			C9.589,27.807,9.5,28.414,9.5,29.09h7.282v-2.094h-4.044C12.879,26.674,13.144,26.328,13.536,25.957z"/>
		<path d="M22.114,21.277c-0.182,0-0.368,0.019-0.556,0.057c-0.188,0.037-0.368,0.096-0.54,0.176
			c-0.171,0.081-0.327,0.178-0.467,0.291c-0.14,0.112-0.248,0.238-0.322,0.378l-0.032-0.032l0.129-2.143h4.316V17.91h-6.396
			l-0.354,6.17h2.514c0.042-0.332,0.158-0.566,0.347-0.701c0.187-0.134,0.403-0.201,0.651-0.201c0.354,0,0.61,0.161,0.766,0.483
			c0.156,0.321,0.233,0.821,0.233,1.498c0,0.784-0.068,1.389-0.201,1.813c-0.135,0.424-0.417,0.635-0.846,0.635
			c-0.192,0-0.354-0.039-0.483-0.119c-0.13-0.08-0.228-0.188-0.298-0.322c-0.071-0.134-0.118-0.287-0.145-0.46
			c-0.027-0.171-0.042-0.354-0.042-0.547V25.74h-2.608v0.419c0,1.01,0.292,1.788,0.877,2.336s1.49,0.821,2.715,0.821
			c1.269,0,2.208-0.316,2.818-0.95c0.613-0.634,0.92-1.677,0.92-3.125c0-1.386-0.239-2.393-0.719-3.021
			C23.916,21.591,23.155,21.277,22.114,21.277z"/>
		<polygon points="34.986,20.374 34.066,26.803 34.035,26.803 33.118,20.374 30.314,20.374 29.331,26.803 29.299,26.803 
			28.462,20.374 25.852,20.374 27.673,29.09 30.669,29.09 31.684,22.662 31.715,22.662 32.667,29.09 35.613,29.09 37.5,20.374 		"/>
		<path d="M23.5,0C10.521,0,0,10.523,0,23.5C0,36.477,10.521,47,23.5,47C36.479,47,47,36.477,47,23.5C47,10.523,36.479,0,23.5,0z
			 M23.5,42C13.299,42,5,33.701,5,23.5S13.299,5,23.5,5S42,13.299,42,23.5S33.701,42,23.5,42z"/>
	</g>
</g>
<g>
</g>
<g>
</g>
<g>
</g>
<g>
</g>
<g>
</g>
<g>
</g>
<g>
</g>
<g>
</g>
<g>
</g>
<g>
</g>
<g>
</g>
<g>
</g>
<g>
</g>
<g>
</g>
<g>
</g>
</svg>
