<?xml version="1.0"?>
<svg xmlns="http://www.w3.org/2000/svg" viewBox="0 0 512 512" width="512" height="512"><g id="outline"><path d="M312,288H184a8,8,0,0,0-8,8v96a8,8,0,0,0,8,8H312a8,8,0,0,0,8-8V296A8,8,0,0,0,312,288Zm-8,96H192V304H304Z"/><path d="M488,311.089V264.848l8.736-40.77A66.3,66.3,0,0,0,464,152.22V96a8,8,0,0,0,8-8V24a8,8,0,0,0-8-8H416a8,8,0,0,0-8,8v8H384V48h24v8a8,8,0,0,0,8,8h8V88a8,8,0,0,0,8,8h16v49.966a66.2,66.2,0,0,0-80.736,78.111L376,264.848v46.241L368.4,344.045A65.313,65.313,0,0,0,408,419.443V440a40.045,40.045,0,0,1-40,40H296a40.069,40.069,0,0,1-39.195-32H336a16.019,16.019,0,0,0,16-16V80a16.019,16.019,0,0,0-16-16H255.419A56.078,56.078,0,0,0,200,16H168a56.063,56.063,0,0,0-56,56V456a24,24,0,0,1-48,0V128H80a8,8,0,0,0,7.951-7.116l8-72A8,8,0,0,0,88,40H80V16H64V40H48V16H32V40H24a8,8,0,0,0-7.951,8.884l8,72A8,8,0,0,0,32,128H48V456a40,40,0,0,0,80,0V72a40.045,40.045,0,0,1,40-40h32A40.068,40.068,0,0,1,239.2,64H160a16.019,16.019,0,0,0-16,16V432a16.019,16.019,0,0,0,16,16h80.581A56.078,56.078,0,0,0,296,496h72a56.063,56.063,0,0,0,56-56V423.5a66.315,66.315,0,0,0,8,.5,65.276,65.276,0,0,0,63.605-79.955ZM424,32h32V48H424Zm16,32h16V80H440ZM39.16,112,32.938,56H79.062L72.84,112H39.16ZM160,80H336l.01,352H160Zm311.044,98.643a49.988,49.988,0,0,1,10.048,42.083L473.533,256H457.759l7.81-39.053A34.115,34.115,0,0,0,464,198.06V171.529A50.52,50.52,0,0,1,471.044,178.643ZM449.249,354.5a17.67,17.67,0,1,1-34.5,0l7.666-34.5h19.166ZM392,304V272h80v32Zm22.12-90.189a18.234,18.234,0,1,1,35.76,0L441.441,256H422.559Zm-21.164-35.168A50.247,50.247,0,0,1,448,162.609v17.354a34.238,34.238,0,0,0-49.569,36.985L406.241,256H390.467l-7.559-35.275A49.987,49.987,0,0,1,392.956,178.643Zm.481,210.757a49.018,49.018,0,0,1-9.453-41.757L390.364,320h15.663l-6.895,31.026a33.507,33.507,0,0,0,6.6,28.372A33.878,33.878,0,0,0,408,381.936v19.851A49.3,49.3,0,0,1,393.437,389.4Zm77.126,0A49.019,49.019,0,0,1,432,408a49.935,49.935,0,0,1-8-.652V391.037a33.9,33.9,0,0,0,8,.963,33.67,33.67,0,0,0,32.868-40.974L457.973,320h15.663l6.38,27.643A49.018,49.018,0,0,1,470.563,389.4Z"/><rect x="208" y="320" width="32" height="16"/><rect x="256" y="320" width="32" height="16"/><rect x="208" y="352" width="80" height="16"/></g></svg>
