<?xml version="1.0" encoding="UTF-8"?>
<svg xmlns="http://www.w3.org/2000/svg" viewBox="0 0 28 28" width="512" height="512"><g id="Layer_2" data-name="Layer 2"><path d="M3,9.5A.5.5,0,0,0,3.5,9V5.112A1.614,1.614,0,0,1,5.112,3.5H9a.5.5,0,0,0,0-1H5.112A2.615,2.615,0,0,0,2.5,5.112V9A.5.5,0,0,0,3,9.5Z"/><path d="M22.888,2.5H19a.5.5,0,0,0,0,1h3.888A1.614,1.614,0,0,1,24.5,5.112V9a.5.5,0,0,0,1,0V5.112A2.615,2.615,0,0,0,22.888,2.5Z"/><path d="M9,24.5H5.112A1.614,1.614,0,0,1,3.5,22.888V19a.5.5,0,0,0-1,0v3.888A2.615,2.615,0,0,0,5.112,25.5H9a.5.5,0,0,0,0-1Z"/><path d="M25,18.5a.5.5,0,0,0-.5.5v3.888A1.614,1.614,0,0,1,22.888,24.5H19a.5.5,0,0,0,0,1h3.888A2.615,2.615,0,0,0,25.5,22.888V19A.5.5,0,0,0,25,18.5Z"/><path d="M21,17.75v-7.5a.5.5,0,0,0-.25-.433l-6.5-3.75a.5.5,0,0,0-.5,0L7.255,9.817a.5.5,0,0,0-.25.433v7.5a.5.5,0,0,0,.25.433l6.5,3.75a.5.5,0,0,0,.5,0l6.5-3.75A.5.5,0,0,0,21,17.75ZM14,7.077l5.5,3.173L14,13.423,8.505,10.25ZM8.005,11.116,13.5,14.289v6.345L8.005,17.461ZM14.5,20.634V14.289L20,11.116v6.345Z"/></g></svg>
