<?xml version="1.0" encoding="UTF-8" standalone="no"?>
<!-- Created with Inkscape (http://www.inkscape.org/) -->

<svg
   version="1.1"
   id="svg2544"
   xml:space="preserve"
   width="682.66669"
   height="682.66669"
   viewBox="0 0 682.66669 682.66669"
   xmlns="http://www.w3.org/2000/svg"
   xmlns:svg="http://www.w3.org/2000/svg"><defs
     id="defs2548"><clipPath
       clipPathUnits="userSpaceOnUse"
       id="clipPath2558"><path
         d="M 0,512 H 512 V 0 H 0 Z"
         id="path2556" /></clipPath></defs><g
     id="g2550"
     transform="matrix(1.3333333,0,0,-1.3333333,0,682.66667)"><g
       id="g2552"><g
         id="g2554"
         clip-path="url(#clipPath2558)"><g
           id="g2560"
           transform="translate(336.0366,72.0117)"><path
             d="m 0,0 c -12.303,-5.981 -25.285,-10.772 -38.778,-14.23 v -21.884 c 0,-10.432 -8.561,-18.965 -18.993,-18.965 h -63.411 c -10.46,0 -18.992,8.533 -18.992,18.965 v 21.884 c -19.077,4.876 -37.077,12.416 -53.603,22.224 l -15.477,-15.477 c -7.399,-7.399 -19.475,-7.399 -26.845,0 l -44.844,44.845 c -7.398,7.37 -7.398,19.474 0,26.845 l 15.478,15.478 c -9.808,16.526 -17.348,34.526 -22.224,53.604 h -21.884 c -10.431,0 -18.964,8.561 -18.964,18.993 v 63.413 c 0,10.46 8.533,18.992 18.964,18.992 h 21.884 c 4.876,19.078 12.416,37.079 22.224,53.605 l -15.478,15.478 c -7.398,7.398 -7.398,19.475 0,26.845 l 44.844,44.845 c 7.37,7.399 19.446,7.399 26.845,0 l 15.477,-15.478 c 16.526,9.809 34.526,17.349 53.603,22.225 v 21.884 c 0,10.432 8.532,18.964 18.992,18.964 h 63.411 c 10.432,0 18.993,-8.532 18.993,-18.964 v -21.884 c 19.077,-4.876 37.077,-12.416 53.603,-22.225 l 15.477,15.478 c 7.37,7.399 19.474,7.399 26.844,0 l 44.845,-44.845 c 7.398,-7.37 7.398,-19.447 0,-26.845 L 86.514,288.292 c 9.807,-16.526 17.348,-34.527 22.223,-53.605 h 21.884 c 10.431,0 18.963,-8.532 18.963,-18.992 v -63.413 c 0,-8.448 -5.584,-15.648 -13.237,-18.086"
             style="fill:none;stroke:#000000;stroke-width:15;stroke-linecap:round;stroke-linejoin:round;stroke-miterlimit:10;stroke-dasharray:none;stroke-opacity:1"
             id="path2562" /></g><g
           id="g2564"
           transform="translate(152.8896,364.5278)"><path
             d="m 0,0 c -30.444,-26.278 -49.692,-65.142 -49.692,-108.514 0,-79.202 64.177,-143.381 143.349,-143.381 23.981,0 46.545,5.869 66.387,16.272 m 74.268,99.159 c 1.786,9.043 2.722,18.369 2.722,27.95 0,79.174 -64.177,143.353 -143.377,143.353 -24.322,0 -47.225,-6.067 -67.295,-16.754"
             style="fill:none;stroke:#000000;stroke-width:15;stroke-linecap:round;stroke-linejoin:round;stroke-miterlimit:10;stroke-dasharray:none;stroke-opacity:1"
             id="path2566" /></g><g
           id="g2568"
           transform="translate(216.8394,115.7231)"><path
             d="m 0,0 v 91.278 c -29.934,11.084 -51.393,39.97 -51.393,73.618 0,26.874 13.664,50.714 34.414,64.859 21.77,14.883 17.546,-8.617 17.546,-12.558 v -47.141 c 0,-16.498 12.926,-30.105 29.14,-31.211 16.214,1.106 29.14,14.713 29.14,31.211 v 47.141 c 0,3.941 -4.195,27.441 17.575,12.558 20.75,-14.145 34.413,-37.985 34.413,-64.859 0,-33.648 -21.459,-62.534 -51.393,-73.618 L 59.442,0"
             style="fill:none;stroke:#000000;stroke-width:15;stroke-linecap:round;stroke-linejoin:round;stroke-miterlimit:10;stroke-dasharray:none;stroke-opacity:1"
             id="path2570" /></g><g
           id="g2572"
           transform="translate(453.7314,49.9858)"><path
             d="m 0,0 c -13.437,-7.172 -28.8,-11.254 -45.1,-11.254 -52.951,0 -95.867,42.918 -95.867,95.871 0,52.952 42.916,95.87 95.867,95.87 52.952,0 95.869,-42.918 95.869,-95.87 0,-24.464 -9.185,-46.773 -24.265,-63.725"
             style="fill:none;stroke:#000000;stroke-width:15;stroke-linecap:round;stroke-linejoin:round;stroke-miterlimit:10;stroke-dasharray:none;stroke-opacity:1"
             id="path2574" /></g><g
           id="g2576"
           transform="translate(397.7187,135.623)"><path
             d="m 0,0 30.954,36.908 c 6.435,7.682 17.943,8.703 25.654,2.268 7.682,-6.435 8.702,-17.944 2.239,-25.654 l -42.69,-50.94 c -3.231,-3.884 -7.398,-6.039 -12.415,-6.463 -5.018,-0.426 -9.468,0.992 -13.324,4.252 l -24.009,20.381 c -7.654,6.492 -8.589,18.001 -2.126,25.655 6.491,7.654 18.029,8.589 25.654,2.126 z"
             style="fill:none;stroke:#000000;stroke-width:15;stroke-linecap:round;stroke-linejoin:round;stroke-miterlimit:10;stroke-dasharray:none;stroke-opacity:1"
             id="path2578" /></g></g></g></g></svg>
