<svg id="Capa_1" enable-background="new 0 0 512 512" height="512" viewBox="0 0 512 512" width="512" xmlns="http://www.w3.org/2000/svg"><g><path d="m343.226 279.555c-11.428 18.448-19.536 38.605-23.95 59.677h-126.485c-4.378-21.23-12.447-41.389-23.826-59.677h-36.803c17.716 21.742 29.073 47.805 32.952 75.708v86.737h24.374v3.489c0 36.674 29.837 66.511 66.511 66.511s66.511-29.837 66.511-66.511v-3.489h24.374v-86.511c3.875-27.595 15.244-53.726 33.003-75.933h-36.661zm-26.342 132.445h-121.77v-42.768h121.77zm-97.395 33.488v-3.488h73.021v3.489c0 20.132-16.379 36.511-36.511 36.511s-36.51-16.379-36.51-36.512z"/><path d="m149.098 81.453c24.95-31.052 63.092-51.114 105.797-51.449 36.849-.279 71.541 13.837 97.686 39.778 3.747 3.718 7.244 7.618 10.5 11.671h36.495c-7.119-11.879-15.771-22.952-25.865-32.967-31.864-31.616-74.134-48.822-119.052-48.481-60.212.473-112.987 33.11-142.029 81.448z"/><path d="m168.831 252.452v-30h-39.916v-113.897h-30v143.897z"/><path d="m276.576 139.5v-30h-77.593v142.952h77.593v-30h-47.593v-26.476h44.085v-30h-44.085v-26.476z"/><path d="m307.054 111.831.306 140.678s38.298-.146 47.23-.303c33.894-.592 58.494-30.058 58.494-70.064 0-42.055-23.98-70.311-59.672-70.311zm76.03 70.311c0 27.33-14.574 39.817-29.019 40.069-3.885.068-10.568.123-16.81.163-.041-13.03-.123-67.003-.147-80.543h16.304c27.533 0 29.672 30.854 29.672 40.311z"/></g></svg>