<?xml version="1.0" encoding="UTF-8"?>
<svg xmlns="http://www.w3.org/2000/svg" id="Layer_1" data-name="Layer 1" viewBox="0 0 64 64" width="512" height="512"><path d="M30.8564,3.03C9.51,4.5213,3.3967,33.145,22.719,42.8169a5.797,5.797,0,0,1,3.2241,4.3851A3.0056,3.0056,0,0,0,24.78,52a3.0008,3.0008,0,0,0,1.3048,4.8422A4.998,4.998,0,0,0,31,61h2a4.998,4.998,0,0,0,4.9149-4.1578A3.0008,3.0008,0,0,0,39.22,52a3.0056,3.0056,0,0,0-1.1628-4.798,5.8007,5.8007,0,0,1,3.2253-4.3856A20.86,20.86,0,0,0,53,24C53.2577,12.2753,42.5617,2.1484,30.8564,3.03ZM38,50a1.0009,1.0009,0,0,1-1,1H27a1,1,0,0,1,0-2H37A1.0009,1.0009,0,0,1,38,50Zm-5,9H31a3.0062,3.0062,0,0,1-2.8291-2h7.6582A3.0062,3.0062,0,0,1,33,59Zm4-4H27a1,1,0,0,1,0-2H37A1,1,0,0,1,37,55Zm3.3975-13.9775A7.7852,7.7852,0,0,0,36.0645,47h-8.129a7.7814,7.7814,0,0,0-4.332-5.9771C6.1161,32.2712,11.66,6.3721,30.9622,5.0274,51.5971,4.2379,58.8068,31.5956,40.3975,41.0225Z"/><path d="M32,7A17.019,17.019,0,0,0,15,24c.9335,22.5529,33.07,22.5463,34,0A17.019,17.019,0,0,0,32,7Zm0,32A15.0167,15.0167,0,0,1,17,24c.8237-19.9,29.1794-19.8938,30,0A15.0167,15.0167,0,0,1,32,39Z"/><path d="M24,19H22a1,1,0,0,0-1,1v8a1,1,0,0,0,2,0V25h1a1.0009,1.0009,0,0,1,1,1v2a1,1,0,0,0,2,0c-.0163-1.2193.2156-3.0975-.78-4A3.01,3.01,0,0,0,24,19Zm-1,4V21h1a1,1,0,0,1,0,2Z"/><path d="M31,22a1.0009,1.0009,0,0,1,1-1h2a1,1,0,0,0,0-2H32a3.0033,3.0033,0,0,0-3,3c.0014.9965-.001,3.0037,0,4a3,3,0,0,0,6,0V24a1,1,0,0,0-2,0v2a1,1,0,0,1-2,0V22Z"/><path d="M40,19H38a1,1,0,0,0-1,1v8a1,1,0,0,0,1,1h2a3.01,3.01,0,0,0,2.22-5A3.01,3.01,0,0,0,40,19Zm-1,2h1a1,1,0,0,1,0,2H39Zm1,6H39V25h1A1,1,0,0,1,40,27Z"/></svg>
