<?xml version="1.0" encoding="UTF-8" standalone="no"?>
<!-- Created with Inkscape (http://www.inkscape.org/) -->

<svg
   version="1.1"
   id="svg807"
   xml:space="preserve"
   width="682.66669"
   height="682.66669"
   viewBox="0 0 682.66669 682.66669"
   xmlns="http://www.w3.org/2000/svg"
   xmlns:svg="http://www.w3.org/2000/svg"><defs
     id="defs811"><clipPath
       clipPathUnits="userSpaceOnUse"
       id="clipPath821"><path
         d="M 0,512 H 512 V 0 H 0 Z"
         id="path819" /></clipPath><clipPath
       clipPathUnits="userSpaceOnUse"
       id="clipPath845"><path
         d="M 0,512 H 512 V 0 H 0 Z"
         id="path843" /></clipPath></defs><g
     id="g813"
     transform="matrix(1.3333333,0,0,-1.3333333,0,682.66667)"><g
       id="g815"><g
         id="g817"
         clip-path="url(#clipPath821)"><g
           id="g823"
           transform="translate(388.4846,196.811)"><path
             d="m 0,0 113.515,-59.065 -246,-128 -246,128 113.513,59.064"
             style="fill:none;stroke:#000000;stroke-width:20;stroke-linecap:round;stroke-linejoin:round;stroke-miterlimit:10;stroke-dasharray:none;stroke-opacity:1"
             id="path825" /></g></g></g><g
       id="g827"
       transform="translate(71.5,224)"><path
         d="M 0,0 112.348,58.458"
         style="fill:none;stroke:#000000;stroke-width:20;stroke-linecap:round;stroke-linejoin:round;stroke-miterlimit:10;stroke-dasharray:none;stroke-opacity:1"
         id="path829" /></g><g
       id="g831"
       transform="translate(133,192.127)"><path
         d="M 0,0 112.049,58.302"
         style="fill:none;stroke:#000000;stroke-width:20;stroke-linecap:round;stroke-linejoin:round;stroke-miterlimit:10;stroke-dasharray:none;stroke-opacity:1"
         id="path833" /></g><g
       id="g835"
       transform="translate(196,160.8333)"><path
         d="M 0,0 243,126.841"
         style="fill:none;stroke:#000000;stroke-width:20;stroke-linecap:round;stroke-linejoin:round;stroke-miterlimit:10;stroke-dasharray:none;stroke-opacity:1"
         id="path837" /></g><g
       id="g839"><g
         id="g841"
         clip-path="url(#clipPath845)"><g
           id="g847"
           transform="translate(389.1359,314.5991)"><path
             d="m 0,0 112.864,-58.726 -246,-128 -246,128 113.513,59.063"
             style="fill:none;stroke:#000000;stroke-width:20;stroke-linecap:round;stroke-linejoin:round;stroke-miterlimit:10;stroke-dasharray:none;stroke-opacity:1"
             id="path849" /></g><g
           id="g851"
           transform="translate(418.9139,417.2318)"><path
             d="m 0,0 83.086,-43.232 -246,-128 -246,128 246,128 83.083,-43.23"
             style="fill:none;stroke:#000000;stroke-width:20;stroke-linecap:round;stroke-linejoin:round;stroke-miterlimit:10;stroke-dasharray:none;stroke-opacity:1"
             id="path853" /></g></g></g><g
       id="g855"
       transform="translate(379,438)"><path
         d="M 0,0 V 0"
         style="fill:none;stroke:#000000;stroke-width:20;stroke-linecap:round;stroke-linejoin:round;stroke-miterlimit:10;stroke-dasharray:none;stroke-opacity:1"
         id="path857" /></g></g></svg>
