<svg id="Capa_1" enable-background="new 0 0 464 464" height="512" viewBox="0 0 464 464" width="512" xmlns="http://www.w3.org/2000/svg"><g><path d="m56 400h32v16h-32z"/><path d="m120 320h-96c-13.255 0-24 10.745-24 24v96c0 13.255 10.745 24 24 24h96c13.255 0 24-10.745 24-24v-96c0-13.255-10.745-24-24-24zm-16 56h-16v-8h-32v16h40c4.418 0 8 3.582 8 8v32c0 4.418-3.582 8-8 8h-48c-4.418 0-8-3.582-8-8v-64c0-4.418 3.582-8 8-8h48c4.418 0 8 3.582 8 8z"/><path d="m24 304h96c13.255 0 24-10.745 24-24v-80.4c-9.122-.862-17.663-4.86-24.168-11.312l-28.28-28.288h-67.552c-13.255 0-24 10.745-24 24v96c0 13.255 10.745 24 24 24zm24-48h32c4.418 0 8-3.582 8-8s-3.582-8-8-8h-16c-4.418 0-8-3.582-8-8s3.582-8 8-8h16c4.418 0 8-3.582 8-8s-3.582-8-8-8h-32v-16h32c13.255.009 23.993 10.762 23.983 24.017-.004 5.898-2.18 11.588-6.111 15.983 8.837 9.88 7.991 25.052-1.889 33.889-4.395 3.931-10.085 6.107-15.983 6.111h-32z"/><path d="m400 400h-16c-4.418 0-8 3.582-8 8s3.582 8 8 8h16c4.418 0 8-3.582 8-8s-3.582-8-8-8z"/><path d="m280 320h-96c-13.255 0-24 10.745-24 24v96c0 13.255 10.745 24 24 24h96c13.255 0 24-10.745 24-24v-96c0-13.255-10.745-24-24-24zm-32.184 113.736-15.632-3.472 13.84-62.264h-26.92l4.48 13.472-15.2 5.056-8-24c-1.396-4.192.87-8.722 5.062-10.118.823-.274 1.686-.413 2.554-.41h48c4.418-.004 8.003 3.575 8.007 7.993 0 .586-.063 1.171-.191 1.743z"/><path d="m176.4 188.288c-4.594 4.529-10.223 7.868-16.4 9.728v81.984c0 13.255 10.745 24 24 24h96c13.255 0 24-10.745 24-24v-96c0-13.255-10.745-24-24-24h-75.32zm47.44 5.28-6.08 30.432h22.24v-32h16v32h16v16h-16v32h-16v-32h-32c-4.418.001-8.001-3.58-8.002-7.998 0-.538.054-1.075.162-1.602l8-40z"/><path d="m440 0h-96c-13.255 0-24 10.745-24 24v96c0 13.255 10.745 24 24 24h96c13.255 0 24-10.745 24-24v-96c0-13.255-10.745-24-24-24zm-16 72c0 4.418-3.582 8-8 8h-40v16h48v16h-56c-4.418 0-8-3.582-8-8v-32c0-4.418 3.582-8 8-8h40v-16h-48v-16h56c4.418 0 8 3.582 8 8z"/><path d="m400 368h-16c-4.418 0-8 3.582-8 8s3.582 8 8 8h16c4.418 0 8-3.582 8-8s-3.582-8-8-8z"/><path d="m440 160h-96c-13.255 0-24 10.745-24 24v96c0 13.255 10.745 24 24 24h96c13.255 0 24-10.745 24-24v-96c0-13.255-10.745-24-24-24zm-16 48h-48v16h40c4.418 0 8 3.582 8 8v32c0 4.418-3.582 8-8 8h-56v-16h48v-16h-40c-4.418 0-8-3.582-8-8v-32c0-4.418 3.582-8 8-8h56z"/><path d="m440 320h-96c-13.255 0-24 10.745-24 24v96c0 13.255 10.745 24 24 24h96c13.255 0 24-10.745 24-24v-96c0-13.255-10.745-24-24-24zm-16 88c0 13.255-10.745 24-24 24h-16c-13.197.058-23.943-10.593-24.002-23.79-.027-5.995 2.201-11.781 6.242-16.21-8.894-9.75-8.2-24.864 1.55-33.758 4.429-4.04 10.215-6.268 16.21-6.242h16c13.197-.058 23.943 10.593 24.002 23.79.027 5.995-2.201 11.781-6.242 16.21 3.995 4.373 6.219 10.077 6.24 16z"/><path d="m131.152 176.976c9.5 9.055 24.436 9.055 33.936 0l67.88-67.888c9.369-9.372 9.369-24.564 0-33.936l-67.88-67.888c-9.372-9.369-24.564-9.369-33.936 0l-67.888 67.888c-9.369 9.372-9.369 24.564 0 33.936zm-19.32-101.824c0-2.122.844-4.156 2.344-5.656l11.32-11.32c3.174-3.001 8.138-3.001 11.312 0l50.912 50.912-11.312 11.312-45.256-45.248-3.32 3.312v19.312h-16z"/></g></svg>