<svg clip-rule="evenodd" fill-rule="evenodd" height="512" stroke-linejoin="round" stroke-miterlimit="2" viewBox="0 0 101 101" width="512" xmlns="http://www.w3.org/2000/svg"><path d="m39.332 23.238h-12.109v-15.295c0-1.709-.678-3.348-1.887-4.556-1.208-1.209-2.847-1.887-4.556-1.887h-.004c-1.709 0-3.348.678-4.556 1.887-1.208 1.208-1.887 2.847-1.887 4.556v15.295h-2.256c-2.165 0-3.92 1.755-3.92 3.92v19.041c0 6.652 2.642 13.031 7.345 17.734 2.137 2.137 4.62 3.848 7.316 5.08v6.788c0 2.165 1.755 3.92 3.92 3.92h4.58v6.867c0 3.424 1.36 6.708 3.781 9.13 2.422 2.421 5.706 3.782 9.13 3.782h13.965c7.131 0 12.912-5.781 12.912-12.912v-67.208c0-2.362.938-4.629 2.609-6.299 1.671-1.671 3.937-2.61 6.3-2.61s4.629.939 6.3 2.61c1.67 1.67 2.609 3.937 2.609 6.299v67.29c0 1.082.878 1.96 1.96 1.96s1.96-.878 1.96-1.96v-67.29c0-3.402-1.352-6.665-3.758-9.071s-5.669-3.758-9.071-3.758c-3.403 0-6.666 1.352-9.072 3.758s-3.757 5.669-3.757 9.071v67.208c0 4.966-4.026 8.992-8.992 8.992h-13.965c-2.384 0-4.671-.948-6.358-2.634-1.686-1.686-2.633-3.973-2.633-6.358v-6.867h4.579c2.165 0 3.92-1.755 3.92-3.92v-6.788c2.696-1.232 5.179-2.943 7.316-5.08 4.703-4.703 7.345-11.082 7.345-17.734v-19.041c0-2.165-1.755-3.92-3.92-3.92h-2.256v-15.295c0-1.709-.678-3.348-1.887-4.556-1.208-1.209-2.847-1.887-4.556-1.887h-.004c-1.709 0-3.348.678-4.556 1.887-1.208 1.208-1.887 2.847-1.887 4.556v15.295zm-12.594 47.184v5.379h13.079v-5.379c-2.101.564-4.285.857-6.498.857h-.083c-2.213 0-4.397-.293-6.498-.857zm27.74-43.264h-42.401v19.041c0 5.612 2.229 10.994 6.197 14.962s9.35 6.198 14.962 6.198h.083c5.612 0 10.994-2.23 14.962-6.198s6.197-9.35 6.197-14.962v-19.041zm-21.2 10.015c-5.773 0-10.46 4.686-10.46 10.459 0 5.772 4.687 10.459 10.46 10.459 5.772 0 10.459-4.687 10.459-10.459 0-5.773-4.687-10.459-10.459-10.459zm0 3.92c3.609 0 6.539 2.93 6.539 6.539s-2.93 6.539-6.539 6.539c-3.61 0-6.54-2.93-6.54-6.539s2.93-6.539 6.54-6.539zm-9.975-17.855v-15.295c0-.669-.265-1.311-.739-1.784-.473-.474-1.115-.739-1.784-.739h-.004c-.669 0-1.311.265-1.784.739-.473.473-.739 1.115-.739 1.784v15.295zm24.999 0v-15.295c0-.669-.265-1.311-.739-1.784-.473-.474-1.115-.739-1.784-.739h-.004c-.669 0-1.311.265-1.784.739-.473.473-.739 1.115-.739 1.784v15.295z"/></svg>