<?xml version="1.0" encoding="UTF-8"?>
<svg xmlns="http://www.w3.org/2000/svg" viewBox="0 0 64 64" width="512" height="512"><g id="Outline"><rect x="29" y="49" width="2" height="13"/><path d="M43,38l1.334-1.49a2.052,2.052,0,0,0-2.657-.01Z"/><path d="M46.308,33.25a5.128,5.128,0,0,0-6.616,0l1.325,1.5a3.074,3.074,0,0,1,3.966,0Z"/><path d="M48.724,30.411a8,8,0,0,0-11.448,0l1.431,1.4a6,6,0,0,1,8.586,0Z"/><path d="M33.172,38.949l.281,2.178a.989.989,0,0,0,.2.487L35,43.343V55a1,1,0,0,0,1,1h.382L38.1,59.447A1,1,0,0,0,39,60h8a1,1,0,0,0,.9-.553L49.618,56H50a1,1,0,0,0,1-1V43.343l1.345-1.729a.989.989,0,0,0,.2-.487l.384-2.982a34.342,34.342,0,0,1,1.975-7.737L53.035,29.7a36.331,36.331,0,0,0-2.087,8.189L50.6,40.6,49.511,42H36.489L35.4,40.6l-.245-1.908A44.348,44.348,0,0,0,30.489,24.27c-.044-.089-.082-.181-.125-.27H55.619c-.076.16-.135.325-.218.483-.55,1.045-1.058,2.095-1.508,3.121l1.831.8c.431-.983.918-1.99,1.446-2.993A16,16,0,1,0,28.7,25.171,42.387,42.387,0,0,1,33.172,38.949ZM49,54H39.882L49,50.568Zm0-5.57L37,52.947V50.336l12-4.517ZM46.382,58H39.618l-1-2h8.764Zm1.771-14L37,48.2V44ZM29.013,17.389A14.078,14.078,0,0,1,42.348,4.015,13.935,13.935,0,0,1,56.393,22h-26.8A14.044,14.044,0,0,1,29.013,17.389Z"/><path d="M51.228,12.315l1.645-1.139A12.076,12.076,0,0,0,45.1,6.184l-.349,1.969A10.062,10.062,0,0,1,51.228,12.315Z"/><path d="M52.835,16.18l1.967-.36a11.93,11.93,0,0,0-.619-2.18l-1.863.727A9.965,9.965,0,0,1,52.835,16.18Z"/><path d="M8,56H18.854c.01.01.017.023.027.033l.641.762A2.045,2.045,0,0,1,20,58.108V62h2V58.108a4.05,4.05,0,0,0-.947-2.6l-.7-.826a2.429,2.429,0,0,1-.708-1.707,4.383,4.383,0,0,0-1.292-3.121l-2.536-2.536a1,1,0,1,1,1.426-1.4l6,5.8A1.16,1.16,0,0,0,24,52a1,1,0,0,0,1-1V40.414l4,4v2.594h2V44a1,1,0,0,0-.293-.707L25,37.586V27a3,3,0,0,0-3-3H8a3,3,0,0,0-3,3V53A3,3,0,0,0,8,56Zm0-2a1,1,0,0,1-1-1V52H17.437a2.411,2.411,0,0,1,.209.975A4.469,4.469,0,0,0,17.777,54Zm7.079-10L15,44a4.969,4.969,0,0,1-2.753-.833L13.715,41.7a2.893,2.893,0,0,0,2.57,0l1.462,1.462a4.9,4.9,0,0,1-.913.48A2.994,2.994,0,0,0,15.079,44Zm4.084-2.249L17.7,40.285a2.893,2.893,0,0,0,0-2.57l1.468-1.468a4.949,4.949,0,0,1,0,5.5ZM14,39a1,1,0,1,1,1,1A1,1,0,0,1,14,39Zm2.285-2.7a2.893,2.893,0,0,0-2.57,0l-1.468-1.468a4.966,4.966,0,0,1,5.506,0Zm-5.452-.054L12.3,37.715a2.893,2.893,0,0,0,0,2.57l-1.468,1.468a4.966,4.966,0,0,1,0-5.506ZM23,48.7l-4.066-3.936a6.981,6.981,0,1,0-5.3,1.1,2.989,2.989,0,0,0,.771,2.868L15.672,50H7V30H23V48.7ZM7,27a1,1,0,0,1,1-1H22a1,1,0,0,1,1,1v1H7Z"/></g></svg>
