<svg id="Layer_2" height="512" viewBox="0 0 78 78" width="512" xmlns="http://www.w3.org/2000/svg"><path d="m69 38h-9.05c-.53-11.11-9.71-20-20.95-20s-20.42 8.89-20.95 20h-9.05c-.55 0-1 .45-1 1s.45 1 1 1h9.05c.53 11.11 9.71 20 20.95 20s20.42-8.89 20.95-20h9.05c.55 0 1-.45 1-1s-.45-1-1-1zm-30 20c-10.48 0-19-8.52-19-19s8.52-19 19-19 19 8.52 19 19-8.52 19-19 19z"/><path d="m49.29 28.04c-.53-.16-1.09.14-1.25.67l-5.18 17.26-2.94-7.34c-.15-.38-.52-.63-.93-.63s-.78.25-.93.63l-2.94 7.34-5.18-17.26c-.16-.53-.72-.83-1.25-.67s-.83.72-.67 1.25l6 20c.12.41.49.69.91.71.43.02.82-.23.97-.63l3.07-7.68 3.07 7.68c.15.38.52.63.93.63h.04c.42-.02.79-.3.91-.71l6-20c.16-.53-.14-1.09-.67-1.25z"/></svg>